<?xml version="1.0" encoding="UTF-8" standalone="no"?>
<svg
   viewBox="0 0 400.00001 399.99998"
   version="1.1"
   id="svg114"
   sodipodi:docname="2024_07_29_CIDS_Logo_Cantarell.svg"
   width="400"
   height="400"
   inkscape:version="1.1.2 (0a00cf5339, 2022-02-04)"
   inkscape:export-filename="/home/ubuntu-pc/Documents/Projects/CIDS/logo/Curtin Institute for Data Science logo/2024_07_29_CIDS_Logo_Cantarell_600x600.png"
   inkscape:export-xdpi="144"
   inkscape:export-ydpi="144"
   xmlns:inkscape="http://www.inkscape.org/namespaces/inkscape"
   xmlns:sodipodi="http://sodipodi.sourceforge.net/DTD/sodipodi-0.dtd"
   xmlns="http://www.w3.org/2000/svg"
   xmlns:svg="http://www.w3.org/2000/svg"
   xmlns:rdf="http://www.w3.org/1999/02/22-rdf-syntax-ns#"
   xmlns:cc="http://creativecommons.org/ns#"
   xmlns:dc="http://purl.org/dc/elements/1.1/">
  <title
     id="title86299">CIDS Favicon logo</title>
  <sodipodi:namedview
     id="namedview116"
     pagecolor="#ffffff"
     bordercolor="#666666"
     borderopacity="1.0"
     inkscape:pageshadow="2"
     inkscape:pageopacity="0.0"
     inkscape:pagecheckerboard="true"
     showgrid="false"
     units="in"
     height="56.400002cm"
     fit-margin-top="0"
     fit-margin-left="0"
     fit-margin-right="0"
     fit-margin-bottom="0"
     inkscape:zoom="2.927965"
     inkscape:cx="124.48919"
     inkscape:cy="198.0898"
     inkscape:window-width="2560"
     inkscape:window-height="1403"
     inkscape:window-x="2560"
     inkscape:window-y="0"
     inkscape:window-maximized="1"
     inkscape:current-layer="layer1" />
  <defs
     id="defs4">
    <rect
       x="106.69581"
       y="307.48344"
       width="204.76159"
       height="78.667772"
       id="rect94685" />
    <style
       id="style2">
      .cls-1 {
        fill: #006892;
      }

      .cls-2, .cls-3 {
        fill: #fff;
      }

      .cls-4 {
        fill: #231f20;
      }

      .cls-3 {
        font-family: SansaSoftPro-Normal, 'Sansa Soft Pro';
        font-size: 28px;
      }

      .cls-5 {
        letter-spacing: -.08em;
      }

      .cls-6 {
        letter-spacing: -.01em;
      }

      .cls-7 {
        letter-spacing: -.01em;
      }
    </style>
    <clipPath
       clipPathUnits="userSpaceOnUse"
       id="clipPath399">
      <rect
         style="fill:#0000ff;fill-rule:evenodd;stroke-width:2.16451"
         id="rect401"
         width="70.410004"
         height="70.400002"
         x="3.5527137e-15"
         y="3.5527137e-15" />
    </clipPath>
    <clipPath
       clipPathUnits="userSpaceOnUse"
       id="clipPath399-3">
      <rect
         style="fill:#0000ff;fill-rule:evenodd;stroke-width:2.16451"
         id="rect401-6"
         width="70.410004"
         height="70.400002"
         x="3.5527137e-15"
         y="3.5527137e-15" />
    </clipPath>
  </defs>
  <g
     inkscape:groupmode="layer"
     id="layer4"
     inkscape:label="white_bg"
     style="display:inline"
     sodipodi:insensitive="true" />
  <g
     inkscape:groupmode="layer"
     id="layer3"
     inkscape:label="black_bg"
     style="display:inline">
    <path
       style="fill:#231f20;fill-opacity:1;fill-rule:evenodd;stroke-width:1.0001"
       id="rect1896"
       width="400"
       height="279"
       x="0"
       y="0"
       sodipodi:type="rect"
       d="M 0,0 H 400 V 279 H 0 Z" />
  </g>
  <g
     inkscape:groupmode="layer"
     id="layer5"
     inkscape:label="blue_bg"
     style="display:inline">
    <rect
       style="fill:#016e97;fill-opacity:1;stroke-width:1.00435"
       id="rect30831"
       width="400"
       height="115"
       x="0"
       y="285" />
    <text
       xml:space="preserve"
       id="text94683"
       style="font-style:normal;font-weight:normal;font-size:40px;line-height:1.25;font-family:sans-serif;white-space:pre;shape-inside:url(#rect94685);fill:#000000;fill-opacity:1;stroke:none" />
    <text
       xml:space="preserve"
       style="font-style:normal;font-weight:normal;font-size:40px;line-height:1.25;font-family:sans-serif;fill:#000000;fill-opacity:1;stroke:none"
       x="112.19277"
       y="361.32953"
       id="text109277"><tspan
         sodipodi:role="line"
         id="tspan109275"
         x="112.19277"
         y="361.32953" /></text>
  </g>
  <g
     inkscape:groupmode="layer"
     id="layer6"
     inkscape:label="CIDS_Text"
     style="display:inline">
    <text
       xml:space="preserve"
       style="font-size:81.6337px;line-height:1.25;font-family:Inter;-inkscape-font-specification:Inter;stroke-width:0.97183"
       x="111.97035"
       y="362.70947"
       id="text59412"
       transform="scale(0.97182945,1.0289871)"><tspan
         sodipodi:role="line"
         id="tspan59410"
         x="111.97035"
         y="362.70947"
         style="font-style:normal;font-variant:normal;font-weight:bold;font-stretch:normal;font-size:81.6337px;font-family:Cantarell;-inkscape-font-specification:'Cantarell Bold';fill:#ffffff;fill-opacity:1;stroke-width:0.97183">CIDS</tspan></text>
  </g>
  <g
     inkscape:groupmode="layer"
     id="layer1"
     inkscape:label="CIDS_logo"
     style="display:inline">
    <g
       id="BACKGROUND"
       clip-path="url(#clipPath399-3)"
       transform="matrix(3.9289691,0,0,3.9289691,59.773954,0)">
      <path
         class="cls-1"
         d="m 90.78,73.44 c -9.72,0 -17.6,7.88 -17.6,17.6 v 52.8 H 425.21 V 73.43 H 90.78 Z"
         id="path6" />
      <rect
         class="cls-4"
         width="100.01421"
         height="100"
         id="rect8"
         x="-14.802102"
         y="-14.799999"
         style="stroke-width:1.42045" />
      <g
         id="g50">
        <path
           class="cls-2"
           d="m 35.26,12.6 8.58,4.95 c 0,0 0.84,0.39 1.24,1.06 0.35,0.6 0.38,1.26 0.38,1.26 v 7.73 c 0,0 0.03,0.95 -0.25,1.52 -0.28,0.56 -0.61,0.81 -0.61,0.81 l -7.93,4.75 c 0,0 -0.76,0.5 -1.41,0.5 -0.65,0 -1.62,-0.5 -1.62,-0.5 l -7.42,-4.39 c 0,0 -0.33,-0.1 -0.83,-0.71 -0.5,-0.61 -0.43,-1.67 -0.43,-1.51 0,0.16 0,-8.33 0,-8.33 0,0 -0.05,-0.5 0.35,-1.06 0.52,-0.72 1.01,-0.91 1.01,-0.91 l 8.94,-5.15 v 0 z"
           id="path10" />
        <g
           id="g48">
          <polygon
             class="cls-2"
             points="29.25,12.95 14.08,12.95 14.08,15.72 24.44,15.72 "
             id="polygon12" />
          <polygon
             class="cls-2"
             points="56.33,15.72 56.33,12.95 41.29,12.95 46.1,15.72 "
             id="polygon14" />
          <path
             class="cls-2"
             d="m 48.28,21.26 h 8.05 v -2.77 h -8.07 c 0.02,0.16 0.03,0.27 0.03,0.27 v 2.5 z"
             id="path16" />
          <path
             class="cls-2"
             d="m 22.13,18.49 h -8.05 v 2.77 h 8.05 v -2.7 c 0,0 0,-0.03 0,-0.07 z"
             id="path18" />
          <rect
             class="cls-2"
             x="48.279999"
             y="24.02"
             width="8.0500002"
             height="2.77"
             id="rect20" />
          <path
             class="cls-2"
             d="m 14.08,24.02 v 2.77 h 8.05 v -2.77 z"
             id="path22" />
          <path
             class="cls-2"
             d="m 47.18,31.57 -1.27,0.76 h 10.41 v -2.77 h -8.1 c -0.04,0.33 -0.12,0.69 -0.27,0.98 -0.35,0.71 -0.77,1.03 -0.77,1.03 z"
             id="path24" />
          <path
             class="cls-2"
             d="m 22.68,31.12 c -0.39,-0.46 -0.51,-1.14 -0.54,-1.56 h -8.06 v 2.77 h 10.18 l -0.52,-0.31 c 0,0 -0.42,-0.13 -1.06,-0.9 z"
             id="path26" />
          <path
             class="cls-2"
             d="m 36.65,37.87 h 19.67 c 0,-0.1 0,-0.2 0,-0.3 V 35.1 H 41.29 l -4.22,2.53 c 0,0 -0.17,0.11 -0.42,0.24 z"
             id="path28" />
          <path
             class="cls-2"
             d="M 28.94,35.1 H 14.08 v 2.47 c 0,0.1 0,0.2 0,0.3 H 33.72 C 33.41,37.74 33.2,37.63 33.2,37.63 L 28.93,35.1 Z"
             id="path30" />
          <path
             class="cls-2"
             d="m 55.31,43.4 c 0.32,-0.91 0.56,-1.83 0.73,-2.77 H 36.61 v 2.77 z"
             id="path32" />
          <path
             class="cls-2"
             d="m 14.36,40.63 c 0.17,0.94 0.42,1.86 0.73,2.77 h 18.7 v -2.77 z"
             id="path34" />
          <path
             class="cls-2"
             d="m 16.33,46.17 c 0.51,0.95 1.11,1.88 1.78,2.77 H 33.79 V 46.17 H 16.32 Z"
             id="path36" />
          <path
             class="cls-2"
             d="m 52.3,48.94 c 0.68,-0.89 1.27,-1.82 1.78,-2.77 H 36.61 v 2.77 h 15.68 z"
             id="path38" />
          <path
             class="cls-2"
             d="m 20.56,51.71 c 1,0.98 2.09,1.9 3.28,2.77 h 9.95 V 51.71 H 20.55 Z"
             id="path40" />
          <path
             class="cls-2"
             d="m 46.57,54.47 c 1.19,-0.87 2.29,-1.79 3.28,-2.77 H 36.61 v 2.77 z"
             id="path42" />
          <path
             class="cls-2"
             d="m 28.35,57.24 c 1.7,0.88 3.52,2.02 5.44,2.67 v -2.67 z"
             id="path44" />
          <path
             class="cls-2"
             d="m 42.05,57.24 h -5.44 v 2.67 c 1.92,-0.66 3.74,-1.8 5.44,-2.67 z"
             id="path46" />
        </g>
      </g>
      <path
         class="cls-2"
         d="m 100.63,86.33 c 0,0 0,0 0,0 0,0 0,0 0,0 z"
         id="path54" />
      <path
         class="cls-2"
         d="m 100.63,86.33 c 0,0 0.06,0.01 0.09,0.02 -0.03,0 -0.06,-0.01 -0.09,-0.02 z"
         id="path56" />
      <g
         id="g94">
        <path
           class="cls-2"
           d="m 324.05,30.73 c -1.54,0 -3.37,1.54 -4.04,2.35 -0.67,0.82 -2.46,3.67 -2.46,3.67 V 48.1 c 0,0.38 0,1.23 0,1.23 0,0 -0.87,0 -1.27,0 h -0.91 c -0.79,0 -1.23,-0.47 -1.23,-1.23 V 28.86 c 0,-0.39 0,-1.23 0,-1.23 0,0 0.85,0 1.23,0 h 0.91 c 0.79,0 1.27,0.48 1.27,1.23 v 3.57 l 0.32,-0.48 c 1.63,-2.5 3.53,-4.32 6.35,-4.32 h 0.16 c 0.41,0 0.74,0.14 0.95,0.39 0.18,0.21 0.28,0.5 0.28,0.84 v 1.86 h -1.55 z"
           id="path58" />
        <path
           class="cls-2"
           d="m 232.53,39.11 c 0,6.82 -4.37,10.55 -10.87,10.55 -6.5,0 -10.83,-3.77 -10.83,-10.55 V 20.82 c 0,-0.75 0.48,-1.23 1.23,-1.23 h 1.23 c 0.4,0 1.27,0 1.27,0 0,0 0,0.85 0,1.23 v 18.29 c 0,5.28 3.1,7.3 7.1,7.3 4,0 7.14,-2.02 7.14,-7.3 V 20.82 c 0,-0.75 0.47,-1.23 1.23,-1.23 h 2.5 z"
           id="path60" />
        <path
           class="cls-2"
           d="m 288.03,33.24 c 0,7.42 -4.36,14.24 -6.51,16.1 h -3.73 c -2.18,-1.86 -6.19,-8.69 -6.19,-16.1 v -4.36 c 0,-0.75 0.44,-1.23 1.23,-1.23 h 0.91 c 0.47,0 1.28,0 1.28,0 0,0 0,0.93 0,1.23 v 4.36 c 0,6.19 2.46,11.3 4.8,13.6 2.3,-2.3 4.8,-7.42 4.8,-13.6 v -4.36 c 0,-0.75 0.48,-1.23 1.23,-1.23 h 0.91 c 0.46,0 1.27,0 1.27,0 v 5.6 z"
           id="path62" />
        <path
           class="cls-2"
           d="m 301.37,36.93 c 3.41,0 4.36,-1.23 4.36,-3.37 0,-2.34 -1.59,-3.13 -4.05,-3.13 -3.73,0 -5.87,1.86 -5.87,6.23 v 0.28 h 5.55 z m -8.96,4.05 v -4.32 c 0,-5.91 4.01,-9.32 9.28,-9.32 4.32,0 7.42,1.86 7.42,6.23 0,3.85 -2.46,6.19 -6.78,6.19 h -6.5 v 1.23 c 0,4.04 2.46,5.59 5.87,5.59 2.46,0 6.2,-1.36 6.2,-1.36 0,0 0,0.8 0,1.08 v 0.87 c 0,0.79 -0.08,1.07 -0.76,1.39 -0.32,0.16 -2.98,1.11 -5.44,1.11 -5.27,0 -9.28,-2.5 -9.28,-8.69"
           id="path64" />
        <path
           class="cls-2"
           d="m 331.57,33.56 c 0,1.98 1.35,2.18 3.1,2.62 l 2.65,0.63 c 3.37,0.79 6.03,2.14 6.03,6.35 0,4.8 -4.16,6.5 -8.68,6.5 -2.62,0 -5.12,-0.48 -5.4,-0.56 -0.36,-0.09 -0.94,-0.28 -0.94,-0.28 0,0 -0.01,-0.46 -0.01,-0.87 v -1.07 c 0,-0.63 0.44,-0.91 1,-0.91 0.16,0 0.24,0 0.39,0.04 0.36,0.08 2.46,0.56 4.96,0.56 3.41,0 5.27,-0.95 5.27,-3.41 0,-1.87 -1.59,-2.7 -3.41,-3.09 l -3.25,-0.79 c -2.94,-0.67 -5.12,-2.34 -5.12,-5.71 0,-3.89 3.25,-6.23 8.37,-6.23 2.66,0 4.52,0.4 4.8,0.44 0.43,0.07 0.95,0.23 0.95,0.23 0,0 0,0.58 0,0.92 v 1.11 c 0,0.63 -0.48,0.87 -1.03,0.87 -0.67,0 -2.14,-0.48 -4.72,-0.48 -3.25,0 -4.96,0.95 -4.96,3.13"
           id="path66" />
        <path
           class="cls-2"
           d="m 386.81,43.75 -1.54,1.55 c -1.59,1.59 -3.49,2.82 -6.31,2.82 -3.57,0 -5.79,-1.99 -5.79,-7.46 V 28.88 c 0,-0.75 0.47,-1.23 1.23,-1.23 h 0.95 c 0.4,0 1.23,0 1.23,0 v 13.01 c 0,3.29 1.35,4.36 3.33,4.36 2.14,0 4.4,-2.18 5.63,-3.41 l 1.27,-1.27 V 28.88 c 0,-0.75 0.44,-1.23 1.23,-1.23 h 0.91 c 0.42,0 1.27,0 1.27,0 0,0 0,0.88 0,1.23 v 17.69 c 0,7.42 -4.37,10.23 -11.78,10.23 h -2.5 c -0.4,0 -1.23,0 -1.23,0 0,0 0,-0.9 0,-1.27 v -0.59 c 0,-0.79 0.47,-1.27 1.23,-1.27 h 2.5 c 5.87,0 8.37,-1.82 8.37,-6.82 v -3.09 z"
           id="path68" />
        <path
           class="cls-2"
           d="m 368.14,46.25 c 0.39,0 0.71,0.13 0.92,0.36 0.2,0.21 0.31,0.51 0.31,0.87 v 1.86 c 0,0 -0.86,0 -1.23,0 h -1.87 c -4.32,0 -7.14,-2.46 -7.14,-7.14 V 23.92 c 0,-0.37 0,-1.23 0,-1.23 0,0 0.86,0 1.23,0 h 0.95 c 0.76,0 1.23,0.48 1.23,1.23 v 3.73 h 4.96 c 0.79,0 1.23,0.47 1.23,1.23 v 0.64 c 0,0.41 0,1.22 0,1.22 0,0 -0.84,0 -1.22,0 h -4.96 V 42.2 c 0,2.5 1.31,4.04 3.73,4.04 h 1.87 z"
           id="path70" />
        <path
           class="cls-2"
           d="m 266.27,22.09 c 0,0.76 -0.44,1.23 -1.23,1.23 h -0.91 c -0.39,0 -1.27,0 -1.27,0 v -2.5 c 0,-0.75 0.47,-1.23 1.27,-1.23 h 0.91 c 0.4,0 1.23,0 1.23,0 0,0 0,0.85 0,1.23 z m 0,26.02 c 0,0.41 0,1.23 0,1.23 0,0 -0.86,0 -1.23,0 h -0.91 c -0.79,0 -1.27,-0.48 -1.27,-1.23 V 30.74 h -2.42 c -0.83,0 -1.23,-0.44 -1.23,-1.23 v -1.87 c 0,0 0.82,0 1.19,0 h 4.64 c 0.79,0 1.23,0.48 1.23,1.23 z"
           id="path72" />
        <path
           class="cls-2"
           d="m 353.59,22.09 c 0,0.75 -0.44,1.23 -1.23,1.23 h -0.91 c -0.39,0 -1.27,0 -1.27,0 v -2.5 c 0,-0.75 0.48,-1.23 1.27,-1.23 h 0.91 c 0.4,0 1.23,0 1.23,0 0,0 0,0.85 0,1.23 z m 0,26.02 c 0,0.41 0,1.23 0,1.23 0,0 -0.86,0 -1.23,0 h -0.91 c -0.79,0 -1.27,-0.48 -1.27,-1.23 V 30.74 h -2.42 c -0.83,0 -1.23,-0.44 -1.23,-1.23 v -1.87 c 0,0 0.82,0 1.19,0 h 4.64 c 0.79,0 1.23,0.48 1.23,1.23 z"
           id="path74" />
        <path
           class="cls-2"
           d="m 241.5,31.69 1.55,-1.55 c 1.55,-1.54 3.41,-2.82 6.19,-2.82 3.41,0 5.87,1.86 5.87,7.46 v 14.55 c 0,0 -0.85,0 -1.23,0 h -0.91 c -0.79,0 -1.27,-0.47 -1.27,-1.23 V 34.77 c 0,-3.41 -1.55,-4.36 -3.37,-4.36 -2.18,0 -4.37,2.18 -5.59,3.41 l -1.23,1.27 v 14.24 h -2.18 c -0.79,0 -1.23,-0.47 -1.23,-1.23 V 27.63 c 0,0 0.8,0 1.23,0 h 0.91 c 0.79,0 1.27,0.48 1.27,1.23 v 2.82 z"
           id="path76" />
        <path
           class="cls-2"
           d="m 129.86,45.3 -1.55,1.59 c -1.59,1.55 -3.41,2.78 -6.23,2.78 -3.41,0 -5.87,-1.87 -5.87,-7.46 V 28.89 c 0,-0.75 0.47,-1.23 1.23,-1.23 h 0.95 c 0.4,0 1.23,0 1.23,0 0,0 0,0.88 0,1.23 v 13.32 c 0,3.41 1.55,4.36 3.41,4.36 2.14,0 4.32,-2.18 5.55,-3.41 l 1.27,-1.23 V 28.88 c 0,-0.75 0.44,-1.23 1.23,-1.23 h 0.91 c 0.4,0 1.27,0 1.27,0 0,0 0,0.86 0,1.23 v 19.23 c 0,0.75 -0.48,1.23 -1.27,1.23 h -0.91 c -0.39,0 -1.23,0 -1.23,0 0,0 0,-0.85 0,-1.22 V 45.3 Z"
           id="path78" />
        <path
           class="cls-2"
           d="m 148.74,30.74 c -1.55,0 -3.38,1.54 -4.04,2.36 -0.67,0.82 -2.46,3.67 -2.46,3.67 v 11.35 c 0,0.37 0,1.23 0,1.23 0,0 -0.87,0 -1.27,0 h -0.91 c -0.79,0 -1.23,-0.48 -1.23,-1.23 V 27.66 c 0,0 2.14,0 2.14,0 0.79,0 1.27,0.48 1.27,1.23 v 3.57 l 0.32,-0.48 c 1.63,-2.5 3.53,-4.32 6.35,-4.32 h 0.16 c 0.41,0 0.74,0.14 0.95,0.39 0.18,0.21 0.28,0.49 0.28,0.84 v 1.86 h -1.55 z"
           id="path80" />
        <path
           class="cls-2"
           d="m 162.71,46.25 c 0.39,0 0.71,0.13 0.92,0.36 0.2,0.21 0.31,0.51 0.31,0.87 v 1.86 c 0,0 -0.86,0 -1.23,0 h -1.86 c -4.32,0 -7.14,-2.46 -7.14,-7.14 V 23.92 c 0,-0.39 0,-1.23 0,-1.23 h 2.18 c 0.75,0 1.23,0.48 1.23,1.23 v 3.73 h 4.96 c 0.79,0 1.23,0.48 1.23,1.23 v 0.63 c 0,0.41 0,1.22 0,1.22 0,0 -0.84,0 -1.23,0 h -4.96 v 11.46 c 0,2.5 1.31,4.05 3.73,4.05 h 1.86 z"
           id="path82" />
        <path
           class="cls-2"
           d="m 174.27,22.1 c 0,0.75 -0.44,1.23 -1.23,1.23 h -2.18 c 0,0 0,-0.85 0,-1.23 v -1.27 c 0,-0.75 0.48,-1.23 1.27,-1.23 h 2.14 c 0,0 0,0.85 0,1.23 z m 0,26.01 c 0,0.41 0,1.22 0,1.22 0,0 -0.87,0 -1.23,0 h -0.91 c -0.79,0 -1.27,-0.48 -1.27,-1.23 V 30.73 h -2.42 c -0.83,0 -1.23,-0.44 -1.23,-1.23 v -1.87 c 0,0 0.82,0 1.19,0 h 4.64 c 0.79,0 1.23,0.48 1.23,1.23 v 19.23 z"
           id="path84" />
        <path
           class="cls-2"
           d="m 183.25,31.7 1.55,-1.55 c 1.55,-1.55 3.41,-2.82 6.19,-2.82 3.41,0 5.87,1.86 5.87,7.46 v 13.33 c 0,0.39 0,1.22 0,1.22 0,0 -0.85,0 -1.23,0 h -0.91 c -0.79,0 -1.27,-0.48 -1.27,-1.23 V 34.78 c 0,-3.41 -1.55,-4.36 -3.37,-4.36 -2.18,0 -4.36,2.18 -5.59,3.41 l -1.23,1.27 v 13.01 c 0,0.41 0,1.22 0,1.22 0,0 -0.9,0 -1.26,0 h -0.91 c -0.79,0 -1.23,-0.48 -1.23,-1.23 V 27.64 c 0,0 0.8,0 1.23,0 H 182 c 0.79,0 1.27,0.48 1.27,1.23 v 2.82 z"
           id="path86" />
        <path
           class="cls-2"
           d="m 107.79,19.57 c 0,0 0,0 0.01,0 0,0 0,0 -0.01,0"
           id="path88" />
        <path
           class="cls-2"
           d="m 107.8,19.57 c 0.05,0 0.11,0.02 0.16,0.03 -0.05,-0.01 -0.11,-0.02 -0.16,-0.03"
           id="path90" />
        <path
           class="cls-2"
           d="m 104.1,22.54 c 1.33,0 2.41,0.11 3.45,0.34 1.16,0.29 2.18,0.72 2.77,0.92 0.24,0.08 0.4,0.12 0.56,0.12 0.4,0 0.67,-0.24 0.67,-0.79 v -1.29 c 0.01,-0.46 0.02,-1.11 0.02,-1.11 0,0 -0.02,0 -0.04,-0.02 -0.12,-0.05 -0.49,-0.21 -0.75,-0.3 -0.44,-0.17 -1.52,-0.54 -2.81,-0.79 -0.05,0 -0.11,-0.02 -0.16,-0.03 0,0 0,0 -0.01,0 -0.47,-0.09 -0.96,-0.16 -1.46,-0.2 -0.03,0 -0.05,0 -0.08,0 v 0 c -0.5,-0.05 -1,-0.07 -1.51,-0.07 -8.69,0 -14.24,4.64 -14.24,13.33 v 3.73 c 0,7.73 4.01,13.33 13.01,13.33 h 1.86 c 2.3,0 4.68,-0.79 5.39,-1.07 0.32,-0.1 0.8,-0.32 0.8,-0.32 0,0 0,-0.65 0,-1.11 v -0.99 c 0,-0.55 -0.28,-0.79 -0.67,-0.79 -0.16,0 -0.32,0.04 -0.56,0.12 -0.95,0.32 -2.97,0.91 -4.96,0.91 h -1.86 c -5.91,0 -9.32,-3.57 -9.32,-10.07 v -3.73 c 0,-7.26 4.36,-10.07 9.91,-10.07"
           id="path92" />
      </g>
      <path
         class="cls-2"
         d="m 100.63,86.33 c 0,0 0,0 0,0 0,0 0,0 0,0 z"
         id="path96" />
      <path
         class="cls-2"
         d="m 100.63,86.33 c 0,0 0.06,0.01 0.09,0.02 -0.03,0 -0.06,-0.01 -0.09,-0.02 z"
         id="path98" />
    </g>
    <rect
       style="fill:#ffffff;fill-opacity:1"
       id="rect102122"
       width="400"
       height="6"
       x="0"
       y="279" />
  </g>
  <metadata
     id="metadata86297">
    <rdf:RDF>
      <cc:Work
         rdf:about="">
        <dc:creator>
          <cc:Agent>
            <dc:title>Leigh Tyers, Curtin Institute for Data Science</dc:title>
          </cc:Agent>
        </dc:creator>
        <dc:title>CIDS Favicon logo</dc:title>
      </cc:Work>
    </rdf:RDF>
  </metadata>
</svg>
